<svg xmlns="http://www.w3.org/2000/svg" width="800" height="500" viewBox="0 0 800 500" role="img" aria-labelledby="title">
  <title id="title">Marketing campaign image placeholder</title>
  <rect width="800" height="500" fill="#FFFFFF"/>
  <g fill="none" stroke="#0E1B3A" stroke-opacity=".8" stroke-width="2.5" stroke-linecap="round" stroke-linejoin="round"><rect x="107" y="126" width="355" height="275" rx="12" fill="#fff"/><path d="M140 172h155M140 194h103"/><rect x="140" y="234" width="38" height="122" rx="5" fill="#F3F3F3" stroke="none"/><rect x="208" y="278" width="38" height="78" rx="5" fill="#F3F3F3" stroke="none"/><rect x="276" y="202" width="38" height="154" rx="5" fill="#FF6A1A" stroke="none"/><rect x="344" y="174" width="38" height="182" rx="5" fill="#0E1B3A" stroke="none"/><rect x="510" y="73" width="182" height="344" rx="23" fill="#fff"/><path d="M570 95h62"/><rect x="530" y="125" width="142" height="153" rx="8" fill="#F3F3F3" stroke="none"/><circle cx="601" cy="201" r="45" fill="#FF6A1A" stroke="none"/><path d="m581 201 15 15 26-30" stroke="#fff" stroke-width="5"/><path d="M535 303h128M535 325h99M535 347h113"/><circle cx="601" cy="386" r="6"/></g>
</svg>
